<svg width="775" height="816" viewBox="0 0 775 816" fill="none" xmlns="http://www.w3.org/2000/svg">
<g opacity="0.33">
<path d="M560.056 334.453C496.41 317.399 531.84 112.543 403.427 78.1344C354.944 65.1435 307.986 108.61 297.54 147.596C290.76 172.899 302.726 209.855 292.682 247.342C272.392 323.065 134.134 243.028 105.056 351.552C88.5826 413.031 125.263 478.305 174.12 491.396C208.189 500.525 256.667 483.582 282.125 490.403C318.628 500.184 282.038 572.343 278.336 593.65C269.519 644.524 312.204 702.366 360.686 715.357C426.203 732.913 447.53 640.592 459.232 596.921C504.03 429.73 605.776 571.902 643.593 430.765C651.227 402.275 657.491 330.227 618.556 319.794C595.531 313.624 595.997 344.083 560.056 334.453Z" stroke="url(#paint0_linear)" stroke-miterlimit="10"/>
<path d="M619.337 315.382C597.262 308.664 597.554 338.273 563.261 328.482C501.926 311.042 534.986 112.783 410.504 79.4278C385.233 72.6565 362.496 82.6354 341.603 94.7156C320.423 107.121 303.192 125.003 295.91 143.945C286.623 167.371 297.517 203.839 287.148 241.038C283.747 252.983 277.542 261.164 269.306 267.194C225.261 299.789 132.811 259.95 108.252 351.605C91.3771 414.583 121.615 479.939 168.199 494.028C200.519 503.693 247.719 490.023 274.711 497.858C290.896 502.597 293.206 518.684 291.056 537.193C288.262 560.35 277.934 586.913 276.943 598.098C272.127 646.026 314.395 697.931 363.44 711.073C427.834 728.327 450.174 642.707 463.058 601.361C477.586 554.629 496.598 531.599 516.655 518.893C563.567 489.075 616.355 527.929 640.95 428.65C642.973 420.353 644.964 408.431 646.032 395.458C648.52 368.201 646.918 338.241 631.299 322.404C627.92 319.289 623.966 316.824 619.337 315.382Z" stroke="url(#paint1_linear)" stroke-miterlimit="10"/>
<path d="M619.793 310.683C598.905 303.278 598.974 332.225 566.142 322.222C507.304 304.448 537.945 112.973 417.58 80.7213C390.438 73.4484 367.883 86.4895 344.557 97.9177C322.555 108.897 303.658 122.516 294.043 140.431C282.487 161.843 292.12 197.772 281.14 235.008C277.739 246.954 271.347 255.085 263.571 261.639C219.321 297.996 136.107 259.628 111.347 352.033C94.0708 416.51 118.054 481.998 162.227 496.847C192.798 507.048 238.72 496.652 267.059 505.451C283.144 510.564 286.216 526.052 285.203 544.062C283.97 566.633 275.405 591.86 275.414 602.309C275.021 647.203 316.911 693.784 366.33 707.026C429.788 724.029 453.091 645.297 467.021 606.039C482.681 561.82 502.83 538.291 522.877 523.373C568.685 489.442 615.784 525.566 638.256 426.723C640.192 418.001 642.183 406.079 643.302 392.919C646.041 364.725 645.973 335.778 631.317 318.592C628.039 315.102 624.372 312.312 619.793 310.683Z" stroke="url(#paint2_linear)" stroke-miterlimit="10"/>
<path d="M620.437 306.034C600.873 298.181 600.631 326.039 569.21 316.013C512.683 297.853 541.091 113.213 424.47 81.9646C395.268 74.14 373.083 90.2936 347.324 101.07C324.5 110.624 303.936 119.979 292.038 136.679C278.451 155.94 286.537 191.656 275.045 228.553C271.456 240.449 265.064 248.58 257.613 255.422C213.395 295.404 138.942 258.781 113.982 351.935C96.3033 417.912 113.981 483.719 155.556 499.279C184.516 510.253 229.022 502.893 258.658 512.842C274.693 518.143 278.427 533.407 278.601 550.73C278.742 572.665 272.127 596.606 273.136 606.319C276.98 648.129 318.591 689.011 368.384 702.353C430.906 719.106 455.036 647.023 470.148 610.091C487.128 568.436 508.176 544.545 528.265 527.227C572.967 489.183 614.191 522.528 634.914 424.22C636.713 415.26 638.567 403.101 639.973 389.616C643.101 360.723 644.329 332.927 630.737 314.017C628.208 310.728 624.592 307.75 620.437 306.034Z" stroke="url(#paint3_linear)" stroke-miterlimit="10"/>
<path d="M620.894 301.335C602.467 292.983 602.051 319.991 572.228 309.991C518.011 291.446 544.049 113.403 431.36 83.208C400.099 74.8316 378.421 94.3352 350.091 104.222C326.633 112.4 304.265 117.255 289.984 133.116C274.552 150.275 280.766 185.489 269.037 222.524C265.261 234.369 259.006 242.738 251.692 249.818C207.217 293.749 142.002 258.596 116.89 352.312C98.8101 419.788 110.233 485.728 149.347 502.235C176.559 513.745 219.786 509.659 250.956 520.622C266.89 526.298 271.337 541.15 272.46 557.924C273.976 579.223 269.31 601.878 271.268 611.041C279.4 649.581 320.632 685.138 370.8 698.581C432.199 715.032 457.292 649.837 473.637 615.043C491.886 576.139 513.746 551.461 533.963 532.169C577.698 490.249 613.095 520.627 631.883 422.805C633.732 413.658 635.262 401.211 636.905 387.589C640.946 357.533 643.421 331.076 630.705 310.393C628.326 306.541 624.998 303.239 620.894 301.335Z" stroke="url(#paint4_linear)" stroke-miterlimit="10"/>
<path d="M621.487 296.874C604.384 288.073 603.421 314.131 575.246 303.97C523.526 285.09 547.195 113.644 438.436 84.5018C405.303 75.6238 383.945 98.4274 353.045 107.424C329.139 114.277 305.155 114.681 288.354 129.465C271.264 144.573 275.606 179.285 263.316 216.17C259.403 227.778 253.098 236.334 246.057 243.889C201.515 291.819 145.211 257.849 119.899 352.315C101.417 421.291 106.585 487.362 143.238 504.817C168.888 516.913 210.65 516.05 243.116 528.165C259 534.028 264.109 548.656 266.42 564.743C269.497 585.456 266.593 606.776 269.552 615.202C281.97 650.471 322.823 680.703 373.365 694.246C433.828 710.447 459.697 652.089 477.275 619.434C496.606 583.23 519.604 558.053 540.049 536.411C582.815 490.617 612.013 517.926 629.102 420.453C630.814 411.068 632.394 398.434 634.088 384.624C638.092 353.957 642.051 328.701 630.349 306.481C628.445 302.354 625.404 298.727 621.487 296.874Z" stroke="url(#paint5_linear)" stroke-miterlimit="10"/>
<path d="M622.131 292.225C606.301 283.162 605.028 308.133 578.501 297.811C528.904 278.495 550.34 113.884 445.513 85.7952C410.321 76.3655 389.657 102.569 355.999 110.626C331.595 116.342 306.046 112.107 286.486 125.951C267.877 139.246 270.159 173.406 257.494 210.19C253.581 221.798 247.276 230.354 240.56 238.197C195.949 290.127 148.694 257.577 123.232 352.605C104.348 423.08 103.211 489.471 137.453 507.687C161.542 520.369 201.838 522.729 235.839 535.857C251.622 542.095 257.494 556.123 260.89 571.9C265.292 592.163 264.388 612.01 268.346 619.7C284.728 651.411 325.526 676.606 376.63 690.299C435.97 706.199 462.752 654.916 481.613 624.212C502.076 590.521 526.16 565.033 546.596 541.179C588.532 491.746 611.579 515.801 626.92 418.864C628.495 409.241 629.938 396.369 631.919 382.235C636.362 350.68 641.754 326.813 630.929 302.819C628.564 298.167 625.76 294.403 622.131 292.225Z" stroke="url(#paint6_linear)" stroke-miterlimit="10"/>
<path d="M622.587 287.526C606.48 281 606.448 302.085 581.382 291.552C534.096 271.85 553.299 114.074 452.215 86.9885C415.151 77.0572 394.944 106.798 358.629 113.541C333.677 118.306 306.799 109.296 284.345 121.962C264.265 133.256 264.302 166.814 251.262 203.498C247.162 215.056 240.807 223.799 234.415 231.93C189.735 287.859 151.343 256.679 125.729 352.27C106.444 424.245 98.8645 490.718 130.833 509.931C153.123 523.336 192.241 528.595 227.538 542.874C243.459 549.35 249.805 563.104 254.389 578.193C260.352 597.871 261.023 616.332 266.118 623.523C286.225 651.812 327.257 671.646 378.735 685.439C437.139 701.089 464.697 656.643 484.603 628.026C506.149 597.037 531.557 571.1 551.847 544.795C593.002 491.538 609.662 512.475 623.441 416.124C624.929 406.076 626.372 393.204 628.404 378.883C633.285 346.441 639.873 324.099 630.162 298.194C628.632 294.168 625.779 290.591 622.587 287.526Z" stroke="url(#paint7_linear)" stroke-miterlimit="10"/>
<path d="M623.231 282.877C608.11 276.415 607.918 295.85 584.4 285.53C539.424 265.443 556.258 114.264 459.292 88.2819C420.169 77.7989 400.605 111.128 361.582 116.743C336.321 120.42 308.014 107.01 282.478 118.448C261.065 127.978 258.855 160.935 245.491 197.331C241.254 208.651 235.036 217.632 228.781 226.001C184.17 286.167 154.689 256.17 128.875 352.51C109.188 425.984 95.3536 492.589 124.912 512.563C145.64 526.554 183.48 535.086 219.886 550.466C235.757 557.129 242.765 570.659 248.536 585.062C255.873 604.104 258.494 621.279 264.589 627.734C288.234 652.551 329.636 667.261 381.488 681.155C438.956 696.553 467.24 659.132 488.429 632.467C511.057 604.177 537.602 577.741 557.933 549.038C598.257 492.142 608.579 509.774 620.797 414.009C622.149 403.724 623.455 390.614 625.774 375.968C631.093 342.639 638.878 321.824 630.331 293.819C628.751 289.981 625.948 286.217 623.231 282.877Z" stroke="url(#paint8_linear)" stroke-miterlimit="10"/>
<path d="M623.688 278.178C609.603 271.591 609.338 289.801 587.468 279.321C544.802 258.849 559.404 114.504 466.182 89.5252C425 78.4904 406.08 115.407 364.349 119.895C338.54 122.622 308.991 104.861 280.611 114.935C258.001 122.939 253.459 154.868 239.483 191.302C235.059 202.572 228.977 211.79 222.859 220.396C178.504 284.85 157.611 255.747 131.596 352.838C111.507 427.811 91.3679 494.735 118.515 515.469C137.495 529.996 174.107 541.615 211.997 558.196C227.817 565.046 235.675 578.402 242.395 592.256C251.294 610.711 255.489 626.501 262.909 632.506C290.042 654.04 331.677 663.388 384.09 677.432C440.435 692.53 469.496 661.946 492.105 637.469C515.577 612.018 543.683 584.996 563.818 554.03C603.311 493.497 607.297 507.823 617.766 412.594C618.98 402.071 620.336 388.774 622.706 373.94C628.463 339.725 637.257 320.385 630.011 290.519C628.683 285.744 626.354 281.705 623.688 278.178Z" stroke="url(#paint9_linear)" stroke-miterlimit="10"/>
<path d="M624.281 273.717C611.182 267.193 610.758 283.754 590.486 273.3C549.943 252.392 562.312 114.881 473.208 91.0063C430.154 79.47 411.828 120.161 367.253 123.285C341.083 125.111 310.105 102.949 278.743 111.421C254.751 117.849 248.012 148.989 233.525 185.085C229.101 196.355 222.832 205.523 217.175 214.655C172.888 283.345 160.908 255.425 134.742 353.078C114.251 429.551 87.8566 496.607 112.356 518.238C129.724 533.539 164.92 548.193 204.158 565.738C219.927 572.776 228.447 585.907 236.167 599.025C246.627 616.894 252.348 631.485 261.005 636.617C291.439 654.816 333.681 658.903 386.469 673.047C441.878 687.894 471.477 664.285 495.556 641.809C519.923 619.008 549.354 591.537 569.529 558.172C608.379 494.051 605.653 504.972 614.798 410.192C615.876 399.431 617.095 385.897 619.702 370.926C625.847 336.01 635.887 318.009 629.755 286.232C628.801 281.557 626.71 277.381 624.281 273.717Z" stroke="url(#paint10_linear)" stroke-miterlimit="10"/>
<path d="M624.925 269.068C612.863 262.42 612.365 277.756 593.554 267.091C555.185 245.56 565.508 114.934 480.148 92.0623C435.035 79.9743 417.302 124.441 369.883 126.199C343.165 127.076 310.895 100.75 276.552 107.62C251.313 112.709 242.291 142.635 227.379 178.818C222.818 189.85 216.687 199.256 211.167 208.625C167.135 281.603 163.693 254.765 137.376 352.98C116.484 430.953 83.7842 498.328 105.873 520.72C121.492 536.557 155.46 554.297 196.131 573.23C211.801 580.643 221.27 593.225 229.89 605.981C241.911 623.264 249.207 636.469 259.051 640.915C292.873 656.205 335.685 654.418 388.848 668.663C443.133 683.208 473.458 666.625 499.008 646.149C524.22 626.186 555.161 598.317 575.378 562.551C613.447 494.605 604.146 502.359 611.917 408.215C612.858 397.217 614.127 383.494 616.834 368.149C623.418 332.346 634.467 315.82 629.637 282.183C628.92 277.37 626.879 273.006 624.925 269.068Z" stroke="url(#paint11_linear)" stroke-miterlimit="10"/>
<path d="M625.382 264.369C614.493 257.835 613.648 271.47 596.623 260.881C560.426 238.727 568.466 115.124 487.038 93.3057C440.053 80.716 422.863 129.145 372.65 129.351C345.521 129.515 312.009 98.8391 274.735 103.918C248.112 107.432 236.945 136.381 221.472 172.413C216.723 183.395 210.728 193.039 205.346 202.646C161.757 279.961 166.852 254.206 140.335 353.17C119.04 432.642 80.0861 500.15 99.7139 523.489C113.721 540.1 146.325 560.688 188.292 580.772C204.098 588.423 214.042 600.73 223.849 612.8C237.432 629.497 246.253 641.503 257.284 645.263C294.307 657.594 337.827 650.17 391.363 664.515C444.713 678.81 475.44 668.963 502.597 650.727C528.566 633.177 561.206 604.959 581.039 566.881C618.464 495.347 602.453 499.695 608.662 406.137C609.466 394.901 610.598 380.942 613.543 365.459C620.565 328.769 632.436 313.669 629.094 278.22C628.801 273.321 627.235 268.682 625.382 264.369Z" stroke="url(#paint12_linear)" stroke-miterlimit="10"/>
<path d="M626.025 259.72C616.173 253.062 615.305 265.285 599.64 254.86C565.617 232.083 571.612 115.364 494.115 94.5991C445.07 81.4577 428.424 133.849 375.654 132.366C347.977 131.579 313.123 96.9277 272.917 100.217C244.998 102.58 231.361 130.265 215.7 166.246C210.952 177.228 204.957 186.872 199.661 196.904C156.516 278.556 170.012 253.646 143.293 353.36C121.597 434.332 76.3376 502.159 93.6049 526.071C106.051 543.267 137.239 566.892 180.453 588.315C196.209 596.152 207.002 608.285 217.809 619.618C232.953 635.73 243.299 646.538 255.567 649.423C296.165 658.895 340.018 645.735 393.929 660.18C446.343 674.225 477.422 671.302 506.235 655.117C532.913 640.167 567.251 611.601 586.938 571.073C623.719 495.952 600.996 496.894 605.831 403.972C606.361 392.261 607.68 378.352 610.675 362.681C618.136 325.105 631.016 311.48 629.162 274.221C628.92 269.134 627.404 264.308 626.025 259.72Z" stroke="url(#paint13_linear)" stroke-miterlimit="10"/>
<path d="M626.432 255.208C617.565 248.614 616.588 258.999 602.658 248.838C570.808 225.438 574.52 115.742 500.954 96.0299C449.851 82.3368 433.935 138.741 378.37 135.705C350.282 134.206 313.949 95.3412 270.863 96.6533C241.51 97.6274 225.777 124.148 209.555 159.979C204.62 170.911 198.762 180.792 193.653 190.874C150.95 276.864 172.984 253.036 146.115 353.313C124.017 435.784 72.4522 503.93 87.3088 528.603C97.9559 546.522 127.966 573.045 172.664 595.669C188.37 603.695 199.875 615.416 211.769 626.437C228.474 641.963 240.345 651.572 253.8 653.771C297.735 660.521 342.159 641.487 396.445 656.033C447.736 669.776 479.403 673.641 509.824 659.695C537.259 647.158 573.195 618.618 592.924 575.69C629.061 496.981 599.439 494.468 603.137 402.045C603.53 390.097 604.713 375.95 607.995 359.954C615.894 321.491 629.596 309.292 629.23 270.221C629.039 264.947 627.811 259.796 626.432 255.208Z" stroke="url(#paint14_linear)" stroke-miterlimit="10"/>
<path d="M627.075 250.559C619.245 243.841 618.245 252.814 605.726 242.629C575.862 218.556 577.716 115.795 508.081 97.1362C455.105 82.9415 439.495 143.446 381.375 138.72C352.688 136.458 315.063 93.43 269.046 92.9523C238.259 92.5379 220.38 118.082 203.784 153.813C198.712 164.507 192.991 174.626 188.156 185.183C146.083 275.56 176.28 252.714 149.261 353.553C126.761 437.523 68.8909 505.99 81.3369 531.422C90.3723 550.116 119.017 579.487 165.012 603.262C180.667 611.475 193.022 623.022 205.728 633.256C224.182 648.246 237.578 656.657 252.083 657.932C299.593 661.823 344.351 637.053 399.011 651.699C449.365 665.191 481.247 675.743 513.463 664.085C541.469 653.911 579.24 625.26 598.822 579.882C634.553 497.449 597.983 491.667 600.119 399.83C600.375 387.644 601.421 373.26 604.941 357.127C613.465 317.827 627.988 307.053 628.924 266.122C628.97 260.71 628.167 255.472 627.075 250.559Z" stroke="url(#paint15_linear)" stroke-miterlimit="10"/>
<path d="M627.532 245.86C620.688 239.205 619.579 246.341 608.608 236.37C580.967 211.486 580.625 116.172 514.92 98.5668C459.886 83.8203 444.956 148.524 384.091 142.059C355.045 138.897 315.652 91.9805 267.179 89.4383C234.721 87.7726 214.984 112.015 197.826 147.595C192.754 158.29 186.983 168.596 182.284 179.391C140.842 274.155 179.39 252.342 152.169 353.931C129.268 439.4 65.0925 508.186 75.1277 534.379C82.4145 553.608 110.018 586.116 157.259 611.229C173.052 619.679 185.932 630.764 199.724 640.688C219.74 655.091 234.611 662.49 250.403 662.704C301.625 663.974 346.442 632.992 401.664 647.789C451.082 661.03 483.416 678.132 517.189 668.9C545.765 661.088 585.372 632.326 604.758 584.687C639.845 498.665 596.325 489.616 597.325 398.278C597.444 385.854 598.54 371.282 602.161 354.775C611.123 314.587 626.468 305.239 628.893 262.497C629.089 256.523 628.336 251.098 627.532 245.86Z" stroke="url(#paint16_linear)" stroke-miterlimit="10"/>
<path d="M628.176 241.212C622.368 234.432 621.099 239.918 611.813 230.399C586.259 204.467 583.771 116.413 521.81 99.8104C464.904 84.5624 450.28 153.366 386.858 145.212C357.213 141.286 316.479 90.3942 265.124 85.8747C231.233 82.8204 209.35 106.086 191.63 141.516C186.371 152.16 180.787 162.517 176.226 173.549C135.413 272.701 182.175 251.682 154.753 354.021C131.45 440.99 60.9697 510.095 68.4071 536.998C74.0822 557 100.371 592.169 148.858 618.621C164.601 627.259 178.38 637.982 193.123 647.356C214.75 660.986 231.282 667.425 248.262 666.952C303.059 665.363 348.209 628.644 403.992 643.591C452.288 656.532 485.074 680.183 520.59 673.427C549.975 667.841 591.18 639.106 610.419 589.016C644.863 499.407 594.444 486.902 594.257 396.251C594.239 383.59 595.198 368.78 599.056 352.135C608.457 311.061 624.437 303.088 628.537 258.585C628.97 252.473 628.692 246.774 628.176 241.212Z" stroke="url(#paint17_linear)" stroke-miterlimit="10"/>
<path d="M628.769 236.75C623.948 230.034 622.756 233.733 614.83 224.377C591.6 197.26 586.729 116.603 528.699 101.054C469.734 85.254 455.553 158.395 389.675 148.176C359.432 143.488 317.168 88.5699 263.17 81.9359C227.795 77.6804 203.866 99.5943 185.772 134.924C180.376 145.331 174.879 156.112 170.455 167.382C130.272 270.922 185.384 250.935 157.812 353.836C134.107 442.304 57.1342 511.678 62.3482 539.392C66.2244 560.118 91.3354 598.185 141.256 626.026C156.948 634.851 171.39 645.35 187.269 654.225C210.458 667.269 228.515 672.509 246.732 671.163C305.241 666.952 350.587 624.259 406.745 639.307C454.105 651.997 487.206 681.96 524.416 677.868C554.371 674.644 597.412 645.798 616.455 593.446C650.492 500.112 592.937 484.289 591.426 394.086C591.271 381.187 592.28 366.19 596.188 349.358C605.977 307.584 622.829 300.85 628.418 254.535C629.089 248.286 628.911 242.212 628.769 236.75Z" stroke="url(#paint18_linear)" stroke-miterlimit="10"/>
<path d="M629.226 232.051C625.441 225.211 624.327 227.122 617.711 218.118C596.992 189.865 589.687 116.793 535.776 102.347C474.751 85.9958 461.251 163.337 392.629 151.378C361.975 145.977 318.181 87.0335 261.489 78.4724C224.494 72.7781 198.607 93.7654 179.951 128.945C174.555 139.351 169.057 150.133 164.907 161.878C125.542 269.855 188.63 250.8 160.907 354.263C136.801 444.231 53.5228 513.925 56.3763 542.212C58.5038 563.473 82.6241 604.49 133.604 633.618C149.246 642.631 164.587 652.768 181.416 661.094C206.216 673.365 225.936 677.644 245.152 675.561C307.373 668.729 352.916 620.062 409.448 635.21C455.684 647.599 489.287 683.924 528.004 682.445C558.494 680.972 603.319 652.202 622.217 597.401C655.61 500.479 591.107 481.387 588.459 391.683C588.03 378.31 589.089 363.125 593.234 346.156C603.462 303.495 621.135 298.186 628.262 249.873C629.02 244.049 629.267 237.888 629.226 232.051Z" stroke="url(#paint19_linear)" stroke-miterlimit="10"/>
<path d="M629.87 227.402C627.121 220.438 626.085 220.562 620.967 211.959C602.809 182.384 592.883 116.846 542.903 103.453C480.007 86.6003 466.762 168.229 395.633 154.393C364.381 148.229 319.058 85.2595 259.723 74.5838C221.056 67.6382 193.31 87.3241 174.281 122.403C168.697 132.759 163.337 143.778 159.374 155.574C120.826 267.989 192.128 249.728 164.204 353.941C139.695 445.409 49.9754 515.184 50.5552 544.469C51.0711 566.504 73.8262 610.369 126.103 640.648C141.882 649.898 157.748 659.574 175.526 667.351C201.888 679.035 223.32 682.166 243.587 679.159C309.569 669.518 355.308 614.877 412.215 630.125C457.515 642.263 491.671 684.763 531.844 686.086C563.279 687.076 609.652 658.52 628.403 601.268C661.39 500.622 589.751 478.212 585.916 389.194C585.35 375.583 586.459 360.211 590.655 343.054C601.32 299.506 619.629 295.572 628.431 245.499C629.139 239.862 629.623 233.564 629.87 227.402Z" stroke="url(#paint20_linear)" stroke-miterlimit="10"/>
<path d="M630.326 222.703C629.838 215.541 627.843 214.002 623.798 205.887C608.676 174.715 595.792 117.223 549.743 104.884C484.787 87.4793 471.985 173.445 398.35 157.733C366.45 150.993 319.647 83.8101 257.618 71.2073C217.28 63.0104 187.626 81.5822 168.035 116.511C162.264 126.817 157.091 137.886 153.215 150.106C115.484 266.959 194.762 249.631 166.638 354.593C141.727 447.56 45.7021 517.655 43.8712 547.7C42.5882 570.459 64.2157 617.034 117.876 648.89C133.655 658.14 150.182 667.591 169.048 675.057C197.022 685.967 219.927 688.087 241.432 684.207C311.177 671.757 357.062 611.329 414.342 626.677C458.707 638.565 493.365 687.427 535.045 691.363C567.338 694.391 615.496 665.911 633.814 606.535C666.157 502.301 587.381 476.572 582.409 388.054C581.706 374.205 582.866 358.645 587.112 341.301C598.403 296.916 617.396 294.171 627.637 242.473C629.071 235.625 631.016 229.115 630.326 222.703Z" stroke="url(#paint21_linear)" stroke-miterlimit="10"/>
<path d="M630.97 218.054C631.043 211.043 629.6 207.442 626.866 199.678C615.155 167.009 598.75 117.413 556.445 106.078C489.617 88.1712 477.021 178.612 400.929 160.835C368.431 153.332 320.099 82.1234 255.427 67.406C213.418 57.9578 181.906 75.2281 161.94 110.056C156.219 120.175 150.996 131.432 147.207 144.077C110.53 265.23 197.734 249.021 169.459 354.546C144.147 449.012 41.6295 519.376 37.5751 550.232C34.5435 573.526 55.1802 623.051 109.9 656.195C125.628 665.632 143.005 674.909 162.87 681.638C192.269 691.725 217.024 692.934 239.528 688.317C312.985 673.246 359.066 606.844 416.721 622.293C459.963 633.879 495.36 688.966 538.496 695.703C571.785 701.007 621.354 672.503 639.525 610.677C671.462 502.718 585.5 473.859 579.392 385.839C578.364 371.702 579.574 355.955 584.108 338.286C595.837 293.014 615.465 291.644 627.381 238.186C629.189 231.439 630.947 224.878 630.97 218.054Z" stroke="url(#paint22_linear)" stroke-miterlimit="10"/>
<path d="M631.564 213.593C632.249 206.544 631.682 201.169 630.071 193.706C622.382 159.504 601.896 117.653 563.522 107.371C494.635 88.9128 482.481 183.691 403.883 164.037C370.787 155.771 320.925 80.5366 253.746 63.9423C210.304 53.1055 176.646 69.3991 156.119 104.077C150.211 114.145 145.312 125.69 141.522 138.335C105.663 263.926 200.844 248.649 172.418 354.736C146.653 450.889 37.6939 521.335 31.416 553.001C26.5855 577.019 46.0443 629.442 102.197 663.974C118.063 673.65 135.965 682.464 156.917 688.882C187.876 698.383 214.344 698.444 237.898 692.902C315.117 675.022 361.344 602.834 419.374 618.383C461.679 629.719 497.816 691.03 542.222 700.518C576.369 707.86 627.673 679.62 645.461 615.481C677.128 504.035 583.656 471.757 576.648 384.099C575.483 369.725 576.744 353.79 581.327 335.934C593.495 289.775 613.757 289.78 627.35 234.561C629.121 227.201 630.929 220.454 631.564 213.593Z" stroke="url(#paint23_linear)" stroke-miterlimit="10"/>
<path d="M632.02 208.894C639.736 167.368 611.968 119.749 570.598 108.664C499.653 89.6546 487.941 188.77 406.887 167.051C373.193 158.023 321.802 78.7626 251.979 60.0537C193.763 44.4546 151.557 73.9265 135.938 132.218C101.134 262.11 204.291 247.764 175.664 354.601C149.498 452.254 34.2831 522.832 25.5946 555.258C17.2074 586.559 49.5687 667.953 151.214 695.189C290.485 732.506 345.903 593.072 422.277 613.536C463.46 624.571 500.336 692.107 546.198 704.396C581.39 713.826 634.055 685.75 651.884 619.211C687.944 484.634 544.998 458.787 578.848 332.457C591.454 285.411 612.401 286.605 627.619 229.812C629.239 223.015 630.723 215.979 632.02 208.894Z" stroke="url(#paint24_linear)" stroke-miterlimit="10"/>
</g>
<defs>
<linearGradient id="paint0_linear" x1="454.543" y1="91.7892" x2="292.391" y2="696.95" gradientUnits="userSpaceOnUse">
<stop stop-color="#FFD110" stop-opacity="0"/>
<stop offset="0.286458" stop-color="#109BFF"/>
<stop offset="0.614583" stop-color="#FF0469"/>
<stop offset="1" stop-color="#04DA00" stop-opacity="0"/>
</linearGradient>
<linearGradient id="paint1_linear" x1="454.716" y1="91.2328" x2="293.668" y2="692.271" gradientUnits="userSpaceOnUse">
<stop stop-color="#FFD110" stop-opacity="0"/>
<stop offset="0.286458" stop-color="#109BFF"/>
<stop offset="0.614583" stop-color="#FF0469"/>
<stop offset="1" stop-color="#04DA00" stop-opacity="0"/>
</linearGradient>
<linearGradient id="paint2_linear" x1="454.939" y1="90.6901" x2="294.946" y2="687.792" gradientUnits="userSpaceOnUse">
<stop stop-color="#FFD110" stop-opacity="0"/>
<stop offset="0.286458" stop-color="#109BFF"/>
<stop offset="0.614583" stop-color="#FF0469"/>
<stop offset="1" stop-color="#04DA00" stop-opacity="0"/>
</linearGradient>
<linearGradient id="paint3_linear" x1="454.542" y1="89.9815" x2="295.704" y2="682.773" gradientUnits="userSpaceOnUse">
<stop stop-color="#FFD110" stop-opacity="0"/>
<stop offset="0.286458" stop-color="#109BFF"/>
<stop offset="0.614583" stop-color="#FF0469"/>
<stop offset="1" stop-color="#04DA00" stop-opacity="0"/>
</linearGradient>
<linearGradient id="paint4_linear" x1="454.694" y1="89.4195" x2="296.81" y2="678.65" gradientUnits="userSpaceOnUse">
<stop stop-color="#FFD110" stop-opacity="0"/>
<stop offset="0.286458" stop-color="#109BFF"/>
<stop offset="0.614583" stop-color="#FF0469"/>
<stop offset="1" stop-color="#04DA00" stop-opacity="0"/>
</linearGradient>
<linearGradient id="paint5_linear" x1="454.918" y1="88.8777" x2="298.139" y2="673.985" gradientUnits="userSpaceOnUse">
<stop stop-color="#FFD110" stop-opacity="0"/>
<stop offset="0.286458" stop-color="#109BFF"/>
<stop offset="0.614583" stop-color="#FF0469"/>
<stop offset="1" stop-color="#04DA00" stop-opacity="0"/>
</linearGradient>
<linearGradient id="paint6_linear" x1="455.827" y1="88.5186" x2="300.102" y2="669.691" gradientUnits="userSpaceOnUse">
<stop stop-color="#FFD110" stop-opacity="0"/>
<stop offset="0.286458" stop-color="#109BFF"/>
<stop offset="0.614583" stop-color="#FF0469"/>
<stop offset="1" stop-color="#04DA00" stop-opacity="0"/>
</linearGradient>
<linearGradient id="paint7_linear" x1="455.663" y1="87.8722" x2="301.143" y2="664.546" gradientUnits="userSpaceOnUse">
<stop stop-color="#FFD110" stop-opacity="0"/>
<stop offset="0.286458" stop-color="#109BFF"/>
<stop offset="0.614583" stop-color="#FF0469"/>
<stop offset="1" stop-color="#04DA00" stop-opacity="0"/>
</linearGradient>
<linearGradient id="paint8_linear" x1="456.598" y1="87.5204" x2="303.183" y2="660.071" gradientUnits="userSpaceOnUse">
<stop stop-color="#FFD110" stop-opacity="0"/>
<stop offset="0.286458" stop-color="#109BFF"/>
<stop offset="0.614583" stop-color="#FF0469"/>
<stop offset="1" stop-color="#04DA00" stop-opacity="0"/>
</linearGradient>
<linearGradient id="paint9_linear" x1="457.704" y1="87.2141" x2="305.225" y2="656.273" gradientUnits="userSpaceOnUse">
<stop stop-color="#FFD110" stop-opacity="0"/>
<stop offset="0.286458" stop-color="#109BFF"/>
<stop offset="0.614583" stop-color="#FF0469"/>
<stop offset="1" stop-color="#04DA00" stop-opacity="0"/>
</linearGradient>
<linearGradient id="paint10_linear" x1="458.894" y1="87.1314" x2="306.958" y2="654.161" gradientUnits="userSpaceOnUse">
<stop stop-color="#FFD110" stop-opacity="0"/>
<stop offset="0.286458" stop-color="#109BFF"/>
<stop offset="0.614583" stop-color="#FF0469"/>
<stop offset="1" stop-color="#04DA00" stop-opacity="0"/>
</linearGradient>
<linearGradient id="paint11_linear" x1="459.897" y1="86.5966" x2="307.472" y2="655.452" gradientUnits="userSpaceOnUse">
<stop stop-color="#FFD110" stop-opacity="0"/>
<stop offset="0.286458" stop-color="#109BFF"/>
<stop offset="0.614583" stop-color="#FF0469"/>
<stop offset="1" stop-color="#04DA00" stop-opacity="0"/>
</linearGradient>
<linearGradient id="paint12_linear" x1="461.012" y1="86.2925" x2="307.595" y2="658.853" gradientUnits="userSpaceOnUse">
<stop stop-color="#FFD110" stop-opacity="0"/>
<stop offset="0.286458" stop-color="#109BFF"/>
<stop offset="0.614583" stop-color="#FF0469"/>
<stop offset="1" stop-color="#04DA00" stop-opacity="0"/>
</linearGradient>
<linearGradient id="paint13_linear" x1="462.263" y1="86.0246" x2="307.59" y2="663.274" gradientUnits="userSpaceOnUse">
<stop stop-color="#FFD110" stop-opacity="0"/>
<stop offset="0.286458" stop-color="#109BFF"/>
<stop offset="0.614583" stop-color="#FF0469"/>
<stop offset="1" stop-color="#04DA00" stop-opacity="0"/>
</linearGradient>
<linearGradient id="paint14_linear" x1="463.454" y1="85.9415" x2="307.43" y2="668.229" gradientUnits="userSpaceOnUse">
<stop stop-color="#FFD110" stop-opacity="0"/>
<stop offset="0.286458" stop-color="#109BFF"/>
<stop offset="0.614583" stop-color="#FF0469"/>
<stop offset="1" stop-color="#04DA00" stop-opacity="0"/>
</linearGradient>
<linearGradient id="paint15_linear" x1="464.849" y1="85.5115" x2="307.342" y2="673.334" gradientUnits="userSpaceOnUse">
<stop stop-color="#FFD110" stop-opacity="0"/>
<stop offset="0.286458" stop-color="#109BFF"/>
<stop offset="0.614583" stop-color="#FF0469"/>
<stop offset="1" stop-color="#04DA00" stop-opacity="0"/>
</linearGradient>
<linearGradient id="paint16_linear" x1="466.064" y1="85.4345" x2="306.909" y2="679.406" gradientUnits="userSpaceOnUse">
<stop stop-color="#FFD110" stop-opacity="0"/>
<stop offset="0.286458" stop-color="#109BFF"/>
<stop offset="0.614583" stop-color="#FF0469"/>
<stop offset="1" stop-color="#04DA00" stop-opacity="0"/>
</linearGradient>
<linearGradient id="paint17_linear" x1="466.849" y1="85.0421" x2="306.068" y2="685.083" gradientUnits="userSpaceOnUse">
<stop stop-color="#FFD110" stop-opacity="0"/>
<stop offset="0.286458" stop-color="#109BFF"/>
<stop offset="0.614583" stop-color="#FF0469"/>
<stop offset="1" stop-color="#04DA00" stop-opacity="0"/>
</linearGradient>
<linearGradient id="paint18_linear" x1="468.017" y1="84.7521" x2="305.516" y2="691.215" gradientUnits="userSpaceOnUse">
<stop stop-color="#FFD110" stop-opacity="0"/>
<stop offset="0.286458" stop-color="#109BFF"/>
<stop offset="0.614583" stop-color="#FF0469"/>
<stop offset="1" stop-color="#04DA00" stop-opacity="0"/>
</linearGradient>
<linearGradient id="paint19_linear" x1="469.061" y1="84.4287" x2="304.751" y2="697.644" gradientUnits="userSpaceOnUse">
<stop stop-color="#FFD110" stop-opacity="0"/>
<stop offset="0.286458" stop-color="#109BFF"/>
<stop offset="0.614583" stop-color="#FF0469"/>
<stop offset="1" stop-color="#04DA00" stop-opacity="0"/>
</linearGradient>
<linearGradient id="paint20_linear" x1="470.304" y1="83.9576" x2="304.171" y2="703.973" gradientUnits="userSpaceOnUse">
<stop stop-color="#FFD110" stop-opacity="0"/>
<stop offset="0.286458" stop-color="#109BFF"/>
<stop offset="0.614583" stop-color="#FF0469"/>
<stop offset="1" stop-color="#04DA00" stop-opacity="0"/>
</linearGradient>
<linearGradient id="paint21_linear" x1="470.953" y1="83.7289" x2="302.625" y2="711.937" gradientUnits="userSpaceOnUse">
<stop stop-color="#FFD110" stop-opacity="0"/>
<stop offset="0.286458" stop-color="#109BFF"/>
<stop offset="0.614583" stop-color="#FF0469"/>
<stop offset="1" stop-color="#04DA00" stop-opacity="0"/>
</linearGradient>
<linearGradient id="paint22_linear" x1="471.716" y1="83.3305" x2="301.357" y2="719.12" gradientUnits="userSpaceOnUse">
<stop stop-color="#FFD110" stop-opacity="0"/>
<stop offset="0.286458" stop-color="#109BFF"/>
<stop offset="0.614583" stop-color="#FF0469"/>
<stop offset="1" stop-color="#04DA00" stop-opacity="0"/>
</linearGradient>
<linearGradient id="paint23_linear" x1="472.272" y1="82.8762" x2="299.641" y2="727.144" gradientUnits="userSpaceOnUse">
<stop stop-color="#FFD110" stop-opacity="0"/>
<stop offset="0.286458" stop-color="#109BFF"/>
<stop offset="0.614583" stop-color="#FF0469"/>
<stop offset="1" stop-color="#04DA00" stop-opacity="0"/>
</linearGradient>
<linearGradient id="paint24_linear" x1="472.524" y1="82.3404" x2="297.817" y2="734.355" gradientUnits="userSpaceOnUse">
<stop stop-color="#FFD110" stop-opacity="0"/>
<stop offset="0.286458" stop-color="#109BFF"/>
<stop offset="0.614583" stop-color="#FF0469"/>
<stop offset="1" stop-color="#04DA00" stop-opacity="0"/>
</linearGradient>
</defs>
</svg>
